# xmcd CD database file
# Generated: Thu Aug 8 21:55:23 2002 by KSCD
# 
# Track frame offsets:
#       150
#       24180
#       44387
#       60340
#       75475
#       101347
#       119122
#       141695
#       160117
#       172122
#       191440
#       221617
#       240352
#       252187
#       278812
#
# Disc length: 3968 seconds
#
# Revision: 1
# Processed by: cddbd v1.4PL0 Copyright (c) Steve Scherf et al.
# Submitted via: Kscd 1.3.3
#
DISCID=cb0f7e0f
DTITLE=Anger, Darol - Diary of a Fiddler
DYEAR=1900
DGENRE=
TTITLE0=Melth The Teakettle
TTITLE1=Lee Highway Blues
TTITLE2=Les Barres De La Prison
TTITLE3=Banish Misfortune
TTITLE4=John Henry
TTITLE5=Little Help From My Friends, A
TTITLE6=Voodoo Chile
TTITLE7=Bemsha Swing
TTITLE8=Tone Guys' Boogie
TTITLE9=Aran Boat Song
TTITLE10=Working On A Building Medley
TTITLE11=Willow Garden Fantasy
TTITLE12=Carroll County Suite - Where'd You Say You From
TTITLE13=CCS - Blues
TTITLE14=Celtic Groove
EXTD=
EXTT0=
EXTT1=
EXTT2=
EXTT3=
EXTT4=
EXTT5=
EXTT6=
EXTT7=
EXTT8=
EXTT9=
EXTT10=
EXTT11=
EXTT12=
EXTT13=
EXTT14=
PLAYORDER=
